<?xml version="1.0" encoding="UTF-8"?>
<svg xmlns="http://www.w3.org/2000/svg" xmlns:xlink="http://www.w3.org/1999/xlink" width="80pt" height="80pt" viewBox="0 0 80 80" version="1.1">
<g id="surface5442868">
<path style=" stroke:none;fill-rule:nonzero;fill:rgb(100%,100%,100%);fill-opacity:1;" d="M 16.25 7.5 C 11.425781 7.5 7.5 11.425781 7.5 16.25 L 7.5 63.75 C 7.5 68.574219 11.425781 72.5 16.25 72.5 L 63.75 72.5 C 68.574219 72.5 72.5 68.574219 72.5 63.75 L 72.5 16.25 C 72.5 11.425781 68.574219 7.5 63.75 7.5 Z M 16.25 10 L 63.75 10 C 67.195312 10 70 12.804688 70 16.25 L 70 63.75 C 70 67.195312 67.195312 70 63.75 70 L 16.25 70 C 12.804688 70 10 67.195312 10 63.75 L 10 16.25 C 10 12.804688 12.804688 10 16.25 10 Z M 15 15 C 14.3125 15 13.75 15.558594 13.75 16.25 L 13.75 18.75 C 13.75 19.441406 14.3125 20 15 20 C 15.6875 20 16.25 19.441406 16.25 18.75 L 16.25 16.25 C 16.25 15.558594 15.6875 15 15 15 Z M 21.25 15 C 20.5625 15 20 15.558594 20 16.25 L 20 18.75 C 20 19.441406 20.5625 20 21.25 20 C 21.9375 20 22.5 19.441406 22.5 18.75 L 22.5 16.25 C 22.5 15.558594 21.9375 15 21.25 15 Z M 27.5 15 C 26.8125 15 26.25 15.558594 26.25 16.25 L 26.25 18.75 C 26.25 19.441406 26.8125 20 27.5 20 C 28.1875 20 28.75 19.441406 28.75 18.75 L 28.75 16.25 C 28.75 15.558594 28.1875 15 27.5 15 Z M 33.75 15 C 33.0625 15 32.5 15.558594 32.5 16.25 L 32.5 18.75 C 32.5 19.441406 33.0625 20 33.75 20 C 34.4375 20 35 19.441406 35 18.75 L 35 16.25 C 35 15.558594 34.4375 15 33.75 15 Z M 40 15 C 39.3125 15 38.75 15.558594 38.75 16.25 L 38.75 18.75 C 38.75 19.441406 39.3125 20 40 20 C 40.6875 20 41.25 19.441406 41.25 18.75 L 41.25 16.25 C 41.25 15.558594 40.6875 15 40 15 Z M 46.25 15 C 45.5625 15 45 15.558594 45 16.25 L 45 18.75 C 45 19.441406 45.5625 20 46.25 20 C 46.9375 20 47.5 19.441406 47.5 18.75 L 47.5 16.25 C 47.5 15.558594 46.9375 15 46.25 15 Z M 52.5 15 C 51.8125 15 51.25 15.558594 51.25 16.25 L 51.25 18.75 C 51.25 19.441406 51.8125 20 52.5 20 C 53.1875 20 53.75 19.441406 53.75 18.75 L 53.75 16.25 C 53.75 15.558594 53.1875 15 52.5 15 Z M 58.75 15 C 58.0625 15 57.5 15.558594 57.5 16.25 L 57.5 18.75 C 57.5 19.441406 58.0625 20 58.75 20 C 59.4375 20 60 19.441406 60 18.75 L 60 16.25 C 60 15.558594 59.4375 15 58.75 15 Z M 65 15 C 64.3125 15 63.75 15.558594 63.75 16.25 L 63.75 18.75 C 63.75 19.441406 64.3125 20 65 20 C 65.6875 20 66.25 19.441406 66.25 18.75 L 66.25 16.25 C 66.25 15.558594 65.6875 15 65 15 Z M 49.316406 25.996094 C 43.933594 25.996094 39.554688 30.371094 39.554688 35.753906 C 39.554688 36.011719 39.566406 36.269531 39.585938 36.523438 C 33.460938 35.859375 27.792969 32.796875 23.871094 27.984375 C 23.648438 27.707031 23.296875 27.554688 22.933594 27.578125 C 22.578125 27.609375 22.253906 27.8125 22.074219 28.125 C 21.210938 29.609375 20.75 31.304688 20.75 33.027344 C 20.75 34.863281 21.265625 36.625 22.191406 38.144531 C 21.878906 38.011719 21.527344 38.035156 21.230469 38.207031 C 20.898438 38.398438 20.6875 38.753906 20.683594 39.140625 L 20.683594 39.261719 C 20.683594 42.3125 22.109375 45.097656 24.375 46.90625 C 24.226562 46.96875 24.101562 47.0625 23.992188 47.183594 C 23.738281 47.472656 23.652344 47.875 23.769531 48.242188 C 24.742188 51.269531 27.09375 53.570312 30.003906 54.53125 C 27.617188 55.84375 24.941406 56.535156 22.148438 56.535156 C 21.484375 56.535156 20.835938 56.496094 20.214844 56.421875 C 19.703125 56.359375 19.222656 56.65625 19.046875 57.136719 C 18.875 57.621094 19.0625 58.152344 19.492188 58.433594 C 23.636719 61.09375 28.433594 62.5 33.359375 62.5 C 43.042969 62.5 49.101562 57.929688 52.480469 54.097656 C 56.6875 49.320312 59.101562 43.003906 59.101562 36.757812 C 59.101562 36.5625 59.101562 36.367188 59.097656 36.171875 C 60.699219 34.941406 62.085938 33.457031 63.21875 31.757812 C 63.492188 31.355469 63.460938 30.820312 63.144531 30.449219 C 62.832031 30.074219 62.304688 29.949219 61.859375 30.152344 C 61.578125 30.273438 61.292969 30.390625 61 30.503906 C 61.503906 29.75 61.902344 28.925781 62.183594 28.054688 C 62.320312 27.621094 62.175781 27.148438 61.820312 26.863281 C 61.464844 26.582031 60.972656 26.546875 60.582031 26.777344 C 59.148438 27.632812 57.605469 28.246094 55.992188 28.628906 C 54.1875 26.941406 51.792969 25.996094 49.316406 25.996094 Z M 49.316406 28.1875 C 51.402344 28.1875 53.414062 29.058594 54.839844 30.582031 C 55.097656 30.855469 55.476562 30.976562 55.855469 30.902344 C 56.746094 30.726562 57.621094 30.484375 58.476562 30.179688 C 57.984375 30.722656 57.40625 31.191406 56.765625 31.578125 C 56.324219 31.839844 56.128906 32.382812 56.292969 32.871094 C 56.460938 33.359375 56.949219 33.667969 57.460938 33.609375 C 57.988281 33.539062 58.511719 33.457031 59.027344 33.347656 C 58.496094 33.851562 57.933594 34.316406 57.339844 34.746094 C 57.039062 34.960938 56.871094 35.3125 56.882812 35.683594 C 56.898438 36.039062 56.914062 36.394531 56.914062 36.757812 C 56.914062 51.5 44.9375 60.308594 33.359375 60.308594 C 30.308594 60.308594 27.308594 59.714844 24.511719 58.578125 C 27.820312 58.164062 30.917969 56.875 33.578125 54.785156 C 33.945312 54.5 34.089844 54.019531 33.945312 53.574219 C 33.796875 53.132812 33.386719 52.835938 32.929688 52.828125 C 30.277344 52.777344 27.898438 51.355469 26.578125 49.160156 C 27.402344 49.144531 28.21875 49.03125 29.011719 48.816406 C 29.507812 48.6875 29.839844 48.230469 29.824219 47.722656 C 29.804688 47.214844 29.4375 46.78125 28.941406 46.683594 C 25.992188 46.089844 23.714844 43.796875 23.066406 40.898438 C 23.90625 41.164062 24.785156 41.308594 25.664062 41.332031 C 26.15625 41.371094 26.597656 41.039062 26.742188 40.578125 C 26.894531 40.113281 26.71875 39.605469 26.308594 39.332031 C 24.203125 37.921875 22.945312 35.566406 22.945312 33.03125 C 22.945312 32.230469 23.070312 31.4375 23.316406 30.683594 C 27.859375 35.546875 34.144531 38.488281 40.820312 38.824219 C 41.175781 38.84375 41.492188 38.695312 41.71875 38.433594 C 41.9375 38.167969 42.019531 37.816406 41.949219 37.480469 C 41.816406 36.917969 41.746094 36.339844 41.746094 35.757812 C 41.746094 31.582031 45.140625 28.1875 49.316406 28.1875 Z M 49.316406 28.1875 "/>
</g>
</svg>
