<?xml version="1.0" encoding="iso-8859-1"?>
<!-- Generator: Adobe Illustrator 19.0.0, SVG Export Plug-In . SVG Version: 6.00 Build 0)  -->
<svg version="1.1" id="Capa_1" xmlns="http://www.w3.org/2000/svg" xmlns:xlink="http://www.w3.org/1999/xlink" x="0px" y="0px"
	 viewBox="0 0 512 512" style="enable-background:new 0 0 512 512;" xml:space="preserve">
<polygon style="fill:#87CED9;" points="370.759,300.138 379.586,353.103 494.345,353.103 512,300.138 "/>
<polygon style="fill:#6EC1D4;" points="432.552,300.138 370.759,300.138 379.586,353.103 476.69,353.103 "/>
<polygon style="fill:#87CED9;" points="353.103,211.862 361.931,264.828 494.345,264.828 512,211.862 "/>
<polygon style="fill:#6EC1D4;" points="397.241,211.862 353.103,211.862 361.931,264.828 397.241,264.828 "/>
<path style="fill:#87CED9;" d="M379.586,273.655v-48.552c0-5.297-0.883-15.89-1.766-27.366
	c-3.531-34.428-22.069-65.324-50.317-84.745h-0.883v-86.51h-35.31v64.441c-11.476-4.414-22.952-7.945-35.31-9.71V26.483h-35.31
	v53.848c-12.359,0.883-23.834,3.531-35.31,7.945V26.483h-35.31v79.448c-14.124,9.71-25.6,21.186-35.31,35.31v132.414H379.586z"/>
<path style="fill:#4398D1;" d="M282.483,211.862l38.841-30.014c3.531-3.531,7.945-5.297,12.359-5.297h134.179l17.655-52.966h-62.676
	l36.193-35.31l-26.483-26.483l-61.793,61.793h-52.966c-11.476,0-22.952,3.531-31.779,10.593l-56.497,42.372
	C238.345,176.552,282.483,211.862,282.483,211.862z"/>
<rect x="61.793" y="317.793" style="fill:#215280;" width="52.966" height="167.724"/>
<g>
	<path style="fill:#DE4C3C;" d="M206.566,141.241c47.669,0,93.572,22.069,123.586,59.145l119.172,147.421
		c12.359,15.007,18.538,33.545,18.538,52.966l0,0c0,46.786-37.959,84.745-84.745,84.745l0,0H220.69
		c-87.393,0-158.897-71.503-158.897-158.897V141.241H206.566z"/>
	<rect y="141.241" style="fill:#DE4C3C;" width="61.793" height="52.966"/>
	<rect y="229.517" style="fill:#DE4C3C;" width="61.793" height="52.966"/>
</g>
<path style="fill:#215280;" d="M61.793,26.483v52.966C50.317,67.09,34.428,60.91,17.655,61.793H0v44.138h8.828
	c29.131,0,52.966,23.834,52.966,52.966v150.069c0-44.138,17.655-70.621,52.966-97.103V26.483H61.793z"/>
<path style="fill:#C94536;" d="M449.324,347.807l-79.448-97.986C305.434,353.103,188.91,404.303,99.752,429.903
	c30.014,35.31,74.152,55.614,120.938,55.614h162.428c46.786,0,84.745-37.959,84.745-84.745
	C467.862,381.352,460.8,362.814,449.324,347.807z"/>
<path style="fill:#215280;" d="M356.634,335.448L237.462,216.276c-7.945-8.828-19.421-13.241-30.897-13.241l20.303-20.303
	l-12.359-12.359l-32.662,32.662h-67.09v8.828c-3.531,2.648-7.945,6.179-10.593,8.828h42.372l45.903,45.903l12.359-12.359
	l-33.545-33.545h34.428c7.062,0,14.124,2.648,18.538,7.945l40.607,40.607l-64.441,64.441l12.359,12.359l33.545-33.545V358.4
	l-32.662,32.662l12.359,12.359l29.131-29.131l29.131,29.131l12.359-12.359L264.828,358.4v-63.559l13.241-13.241l66.207,66.207
	v49.434h17.655v-44.138h35.31v-17.655H356.634z"/>
<g>
</g>
<g>
</g>
<g>
</g>
<g>
</g>
<g>
</g>
<g>
</g>
<g>
</g>
<g>
</g>
<g>
</g>
<g>
</g>
<g>
</g>
<g>
</g>
<g>
</g>
<g>
</g>
<g>
</g>
</svg>
